<?xml version="1.0" standalone="no"?>
<!DOCTYPE svg PUBLIC "-//W3C//DTD SVG 20010904//EN" "http://www.w3.org/TR/2001/REC-SVG-20010904/DTD/svg10.dtd">
<!-- Created using Karbon, part of Calligra: http://www.calligra.org/karbon -->
<svg xmlns="http://www.w3.org/2000/svg" xmlns:xlink="http://www.w3.org/1999/xlink" width="595.277pt" height="841.891pt">
<defs/>
<g id="Background">
  <ellipse id="shape0" transform="matrix(1 0 0 1 29.2323 179.594)" rx="267.13849038461pt" ry="261.17591034618pt" cx="267.13849038461pt" cy="261.17591034618pt" fill="#ffffff" fill-rule="evenodd"/>
 </g><g id="layer0">
  <g id="g84" transform="translate(46.628, 215.35)" fill="none">
   <path id="path86" transform="translate(54.5608, 185.13)" fill="#00a0e1" d="M452.478 324.291C410.811 324.291 385.341 303.117 385.341 256.254C386.112 225.256 396.92 188.224 403.858 154.96C423.154 70.3026 433.183 21.9142 433.183 13.6002C433.183 3.7758 429.328 0.7479 421.612 0.7479C386.883 0.7479 267.272 190.482 248.755 288.762C248.755 294.055 249.526 299.341 251.839 306.145C244.122 312.194 217.11 322.018 197.815 322.018C175.436 322.018 158.461 314.459 143.799 299.341C179.298 152.688 208.623 40.815 208.623 13.6002C208.623 3.02064 203.997 0 196.273 0C175.436 0.7479 135.311 56.6879 96.7282 112.628C71.2582 149.667 55.0541 191.252 17.2419 280.441C12.3199 292.029 7.22738 301.258 0 308.069C61.2807 383.912 156.022 432.642 262.439 432.642C391.205 432.642 502.907 361.352 558.858 256.907C529.956 293.373 486.354 324.291 452.478 324.291"/>
  </g>
  <g id="g88" transform="translate(43.8065, 177.175)" fill="none">
   <path id="path90" transform="translate(42.5838, 3.19744e-13)" fill="#00a0e1" d="M69.2501 130.408C92.3261 130.408 110.791 143.989 110.791 167.376C110.791 196.054 99.2496 239.806 85.4025 292.624C156.175 184.734 230.789 128.147 278.486 128.147C307.709 128.147 331.561 143.989 331.561 177.189C331.561 215.665 325.406 257.917 313.864 291.109C384.636 180.204 460.019 128.147 504.642 128.147C535.41 128.147 556.942 153.041 556.942 182.465C556.942 265.461 508.484 383.911 508.484 434.461C508.484 449.55 508.484 466.907 516.176 466.907C536.947 466.907 591.567 402.022 600.027 402.022C601.143 402.022 601.985 402.421 602.694 403.022C608.598 378.657 611.813 353.27 611.813 327.136C611.813 146.468 462.487 0 278.286 0C162.019 0 59.7034 58.3842 0 146.852C28.4848 135.727 51.5829 130.408 69.2501 130.408"/>
  </g>
  <g id="g92" transform="translate(34.4607, 204.565)" fill="none">
   <path id="path94" transform="translate(-6.35266, 132.828)" fill="#00a0e1" d="M55.9322 41.1526C55.9322 26.5074 53.6846 12.4477 49.4079 0C18.0509 48.7788 0 105.74 0 166.634C0 195.498 4.08156 223.466 11.6828 250.118C42.2047 155.177 55.9322 76.1319 55.9322 41.1526"/>
  </g>
 </g>
</svg>
